{
  "accessors": [
    {
      "bufferView": 0,
      "componentType": 5126,
      "count": 360,
      "max": [
        -0.06257867813110352,
        1.163277506828308,
        -0.012270122766494751
      ],
      "min": [
        -0.8351841568946838,
        0.06524014472961426,
        -1.1032203435897827
      ],
      "type": "VEC3"
    },
    {
      "bufferView": 1,
      "componentType": 5126,
      "count": 360,
      "type": "VEC3"
    },
    {
      "bufferView": 2,
      "componentType": 5126,
      "count": 360,
      "type": "VEC2"
    },
    {
      "bufferView": 3,
      "componentType": 5125,
      "count": 360,
      "type": "SCALAR"
    },
    {
      "bufferView": 4,
      "componentType": 5126,
      "count": 360,
      "type": "VEC4"
    },
    {
      "bufferView": 5,
      "componentType": 5123,
      "count": 360,
      "type": "VEC4"
    },
    {
      "bufferView": 6,
      "componentType": 5126,
      "count": 7,
      "type": "MAT4"
    },
    {
      "bufferView": 7,
      "componentType": 5126,
      "count": 360,
      "max": [
        -0.500765860080719,
        1.9367260932922363,
        0.086800217628479
      ],
      "min": [
        -1.3368098735809326,
        1.275099754333496,
        -0.8549017906188965
      ],
      "type": "VEC3"
    },
    {
      "bufferView": 8,
      "componentType": 5126,
      "count": 360,
      "type": "VEC3"
    },
    {
      "bufferView": 9,
      "componentType": 5126,
      "count": 360,
      "type": "VEC2"
    },
    {
      "bufferView": 10,
      "componentType": 5125,
      "count": 360,
      "type": "SCALAR"
    },
    {
      "bufferView": 11,
      "componentType": 5126,
      "count": 360,
      "type": "VEC4"
    },
    {
      "bufferView": 12,
      "componentType": 5123,
      "count": 360,
      "type": "VEC4"
    },
    {
      "bufferView": 13,
      "componentType": 5126,
      "count": 7,
      "type": "MAT4"
    },
    {
      "bufferView": 14,
      "componentType": 5126,
      "count": 360,
      "max": [
        0.6370868682861328,
        1.1753499507904053,
        1.0645699501037598
      ],
      "min": [
        0.0070604681968688965,
        0.007469311356544495,
        0.048281073570251465
      ],
      "type": "VEC3"
    },
    {
      "bufferView": 15,
      "componentType": 5126,
      "count": 360,
      "type": "VEC3"
    },
    {
      "bufferView": 16,
      "componentType": 5126,
      "count": 360,
      "type": "VEC2"
    },
    {
      "bufferView": 17,
      "componentType": 5125,
      "count": 360,
      "type": "SCALAR"
    },
    {
      "bufferView": 18,
      "componentType": 5126,
      "count": 360,
      "type": "VEC4"
    },
    {
      "bufferView": 19,
      "componentType": 5123,
      "count": 360,
      "type": "VEC4"
    },
    {
      "bufferView": 20,
      "componentType": 5126,
      "count": 7,
      "type": "MAT4"
    },
    {
      "bufferView": 21,
      "componentType": 5126,
      "count": 360,
      "max": [
        1.4452883005142212,
        1.976739525794983,
        0.7994905710220337
      ],
      "min": [
        0.5879644155502319,
        1.294012188911438,
        -0.11999273300170898
      ],
      "type": "VEC3"
    },
    {
      "bufferView": 22,
      "componentType": 5126,
      "count": 360,
      "type": "VEC3"
    },
    {
      "bufferView": 23,
      "componentType": 5126,
      "count": 360,
      "type": "VEC2"
    },
    {
      "bufferView": 24,
      "componentType": 5125,
      "count": 360,
      "type": "SCALAR"
    },
    {
      "bufferView": 25,
      "componentType": 5126,
      "count": 360,
      "type": "VEC4"
    },
    {
      "bufferView": 26,
      "componentType": 5123,
      "count": 360,
      "type": "VEC4"
    },
    {
      "bufferView": 27,
      "componentType": 5126,
      "count": 7,
      "type": "MAT4"
    },
    {
      "bufferView": 28,
      "componentType": 5126,
      "count": 600,
      "max": [
        0.27367520332336426,
        2.7278952598571777,
        0.2946247458457947
      ],
      "min": [
        -0.2736753225326538,
        2.1794018745422363,
        -0.2548863887786865
      ],
      "type": "VEC3"
    },
    {
      "bufferView": 29,
      "componentType": 5126,
      "count": 600,
      "type": "VEC3"
    },
    {
      "bufferView": 30,
      "componentType": 5126,
      "count": 600,
      "type": "VEC2"
    },
    {
      "bufferView": 31,
      "componentType": 5125,
      "count": 600,
      "type": "SCALAR"
    },
    {
      "bufferView": 32,
      "componentType": 5126,
      "count": 600,
      "type": "VEC4"
    },
    {
      "bufferView": 33,
      "componentType": 5123,
      "count": 600,
      "type": "VEC4"
    },
    {
      "bufferView": 34,
      "componentType": 5126,
      "count": 7,
      "type": "MAT4"
    },
    {
      "bufferView": 35,
      "componentType": 5126,
      "count": 360,
      "max": [
        0.16793887317180634,
        2.4755892753601074,
        0.31406211853027344
      ],
      "min": [
        0.04406170919537544,
        2.356839656829834,
        0.24138087034225464
      ],
      "type": "VEC3"
    },
    {
      "bufferView": 36,
      "componentType": 5126,
      "count": 360,
      "type": "VEC3"
    },
    {
      "bufferView": 37,
      "componentType": 5126,
      "count": 360,
      "type": "VEC2"
    },
    {
      "bufferView": 38,
      "componentType": 5125,
      "count": 360,
      "type": "SCALAR"
    },
    {
      "bufferView": 39,
      "componentType": 5126,
      "count": 360,
      "type": "VEC4"
    },
    {
      "bufferView": 40,
      "componentType": 5123,
      "count": 360,
      "type": "VEC4"
    },
    {
      "bufferView": 41,
      "componentType": 5126,
      "count": 7,
      "type": "MAT4"
    },
    {
      "bufferView": 42,
      "componentType": 5126,
      "count": 360,
      "max": [
        0.07836936414241791,
        2.27780818939209,
        0.260819673538208
      ],
      "min": [
        0.03636396303772926,
        2.2354705333709717,
        0.23201191425323486
      ],
      "type": "VEC3"
    },
    {
      "bufferView": 43,
      "componentType": 5126,
      "count": 360,
      "type": "VEC3"
    },
    {
      "bufferView": 44,
      "componentType": 5126,
      "count": 360,
      "type": "VEC2"
    },
    {
      "bufferView": 45,
      "componentType": 5125,
      "count": 360,
      "type": "SCALAR"
    },
    {
      "bufferView": 46,
      "componentType": 5126,
      "count": 360,
      "type": "VEC4"
    },
    {
      "bufferView": 47,
      "componentType": 5123,
      "count": 360,
      "type": "VEC4"
    },
    {
      "bufferView": 48,
      "componentType": 5126,
      "count": 7,
      "type": "MAT4"
    },
    {
      "bufferView": 49,
      "componentType": 5126,
      "count": 360,
      "max": [
        0.0370827354490757,
        2.2786946296691895,
        0.27166783809661865
      ],
      "min": [
        -0.003875080496072769,
        2.2365922927856445,
        0.2442665696144104
      ],
      "type": "VEC3"
    },
    {
      "bufferView": 50,
      "componentType": 5126,
      "count": 360,
      "type": "VEC3"
    },
    {
      "bufferView": 51,
      "componentType": 5126,
      "count": 360,
      "type": "VEC2"
    },
    {
      "bufferView": 52,
      "componentType": 5125,
      "count": 360,
      "type": "SCALAR"
    },
    {
      "bufferView": 53,
      "componentType": 5126,
      "count": 360,
      "type": "VEC4"
    },
    {
      "bufferView": 54,
      "componentType": 5123,
      "count": 360,
      "type": "VEC4"
    },
    {
      "bufferView": 55,
      "componentType": 5126,
      "count": 7,
      "type": "MAT4"
    },
    {
      "bufferView": 56,
      "componentType": 5126,
      "count": 360,
      "max": [
        -0.04441658407449722,
        2.475590705871582,
        0.31404727697372437
      ],
      "min": [
        -0.16829369962215424,
        2.35684871673584,
        0.24133509397506714
      ],
      "type": "VEC3"
    },
    {
      "bufferView": 57,
      "componentType": 5126,
      "count": 360,
      "type": "VEC3"
    },
    {
      "bufferView": 58,
      "componentType": 5126,
      "count": 360,
      "type": "VEC2"
    },
    {
      "bufferView": 59,
      "componentType": 5125,
      "count": 360,
      "type": "SCALAR"
    },
    {
      "bufferView": 60,
      "componentType": 5126,
      "count": 360,
      "type": "VEC4"
    },
    {
      "bufferView": 61,
      "componentType": 5123,
      "count": 360,
      "type": "VEC4"
    },
    {
      "bufferView": 62,
      "componentType": 5126,
      "count": 7,
      "type": "MAT4"
    },
    {
      "bufferView": 63,
      "componentType": 5126,
      "count": 720,
      "max": [
        0.4087918698787689,
        2.032499074935913,
        0.39239025115966797
      ],
      "min": [
        -0.4087918698787689,
        1.2418525218963623,
        -0.3719381093978882
      ],
      "type": "VEC3"
    },
    {
      "bufferView": 64,
      "componentType": 5126,
      "count": 720,
      "type": "VEC3"
    },
    {
      "bufferView": 65,
      "componentType": 5126,
      "count": 720,
      "type": "VEC2"
    },
    {
      "bufferView": 66,
      "componentType": 5125,
      "count": 720,
      "type": "SCALAR"
    },
    {
      "bufferView": 67,
      "componentType": 5126,
      "count": 720,
      "type": "VEC4"
    },
    {
      "bufferView": 68,
      "componentType": 5123,
      "count": 720,
      "type": "VEC4"
    },
    {
      "bufferView": 69,
      "componentType": 5126,
      "count": 7,
      "type": "MAT4"
    }
  ],
  "asset": {
    "generator": "Prisma3D Pro",
    "version": "2.0"
  },
  "bufferViews": [
    {
      "buffer": 0,
      "byteLength": 4320,
      "target": 34962
    },
    {
      "buffer": 1,
      "byteLength": 4320,
      "target": 34962
    },
    {
      "buffer": 2,
      "byteLength": 2880,
      "target": 34962
    },
    {
      "buffer": 3,
      "byteLength": 1440,
      "target": 34963
    },
    {
      "buffer": 4,
      "byteLength": 5760,
      "target": 34962
    },
    {
      "buffer": 5,
      "byteLength": 2880,
      "target": 34962
    },
    {
      "buffer": 6,
      "byteLength": 448
    },
    {
      "buffer": 7,
      "byteLength": 4320,
      "target": 34962
    },
    {
      "buffer": 8,
      "byteLength": 4320,
      "target": 34962
    },
    {
      "buffer": 9,
      "byteLength": 2880,
      "target": 34962
    },
    {
      "buffer": 10,
      "byteLength": 1440,
      "target": 34963
    },
    {
      "buffer": 11,
      "byteLength": 5760,
      "target": 34962
    },
    {
      "buffer": 12,
      "byteLength": 2880,
      "target": 34962
    },
    {
      "buffer": 13,
      "byteLength": 448
    },
    {
      "buffer": 14,
      "byteLength": 4320,
      "target": 34962
    },
    {
      "buffer": 15,
      "byteLength": 4320,
      "target": 34962
    },
    {
      "buffer": 16,
      "byteLength": 2880,
      "target": 34962
    },
    {
      "buffer": 17,
      "byteLength": 1440,
      "target": 34963
    },
    {
      "buffer": 18,
      "byteLength": 5760,
      "target": 34962
    },
    {
      "buffer": 19,
      "byteLength": 2880,
      "target": 34962
    },
    {
      "buffer": 20,
      "byteLength": 448
    },
    {
      "buffer": 21,
      "byteLength": 4320,
      "target": 34962
    },
    {
      "buffer": 22,
      "byteLength": 4320,
      "target": 34962
    },
    {
      "buffer": 23,
      "byteLength": 2880,
      "target": 34962
    },
    {
      "buffer": 24,
      "byteLength": 1440,
      "target": 34963
    },
    {
      "buffer": 25,
      "byteLength": 5760,
      "target": 34962
    },
    {
      "buffer": 26,
      "byteLength": 2880,
      "target": 34962
    },
    {
      "buffer": 27,
      "byteLength": 448
    },
    {
      "buffer": 28,
      "byteLength": 7200,
      "target": 34962
    },
    {
      "buffer": 29,
      "byteLength": 7200,
      "target": 34962
    },
    {
      "buffer": 30,
      "byteLength": 4800,
      "target": 34962
    },
    {
      "buffer": 31,
      "byteLength": 2400,
      "target": 34963
    },
    {
      "buffer": 32,
      "byteLength": 9600,
      "target": 34962
    },
    {
      "buffer": 33,
      "byteLength": 4800,
      "target": 34962
    },
    {
      "buffer": 34,
      "byteLength": 448
    },
    {
      "buffer": 35,
      "byteLength": 4320,
      "target": 34962
    },
    {
      "buffer": 36,
      "byteLength": 4320,
      "target": 34962
    },
    {
      "buffer": 37,
      "byteLength": 2880,
      "target": 34962
    },
    {
      "buffer": 38,
      "byteLength": 1440,
      "target": 34963
    },
    {
      "buffer": 39,
      "byteLength": 5760,
      "target": 34962
    },
    {
      "buffer": 40,
      "byteLength": 2880,
      "target": 34962
    },
    {
      "buffer": 41,
      "byteLength": 448
    },
    {
      "buffer": 42,
      "byteLength": 4320,
      "target": 34962
    },
    {
      "buffer": 43,
      "byteLength": 4320,
      "target": 34962
    },
    {
      "buffer": 44,
      "byteLength": 2880,
      "target": 34962
    },
    {
      "buffer": 45,
      "byteLength": 1440,
      "target": 34963
    },
    {
      "buffer": 46,
      "byteLength": 5760,
      "target": 34962
    },
    {
      "buffer": 47,
      "byteLength": 2880,
      "target": 34962
    },
    {
      "buffer": 48,
      "byteLength": 448
    },
    {
      "buffer": 49,
      "byteLength": 4320,
      "target": 34962
    },
    {
      "buffer": 50,
      "byteLength": 4320,
      "target": 34962
    },
    {
      "buffer": 51,
      "byteLength": 2880,
      "target": 34962
    },
    {
      "buffer": 52,
      "byteLength": 1440,
      "target": 34963
    },
    {
      "buffer": 53,
      "byteLength": 5760,
      "target": 34962
    },
    {
      "buffer": 54,
      "byteLength": 2880,
      "target": 34962
    },
    {
      "buffer": 55,
      "byteLength": 448
    },
    {
      "buffer": 56,
      "byteLength": 4320,
      "target": 34962
    },
    {
      "buffer": 57,
      "byteLength": 4320,
      "target": 34962
    },
    {
      "buffer": 58,
      "byteLength": 2880,
      "target": 34962
    },
    {
      "buffer": 59,
      "byteLength": 1440,
      "target": 34963
    },
    {
      "buffer": 60,
      "byteLength": 5760,
      "target": 34962
    },
    {
      "buffer": 61,
      "byteLength": 2880,
      "target": 34962
    },
    {
      "buffer": 62,
      "byteLength": 448
    },
    {
      "buffer": 63,
      "byteLength": 8640,
      "target": 34962
    },
    {
      "buffer": 64,
      "byteLength": 8640,
      "target": 34962
    },
    {
      "buffer": 65,
      "byteLength": 5760,
      "target": 34962
    },
    {
      "buffer": 66,
      "byteLength": 2880,
      "target": 34963
    },
    {
      "buffer": 67,
      "byteLength": 11520,
      "target": 34962
    },
    {
      "buffer": 68,
      "byteLength": 5760,
      "target": 34962
    },
    {
      "buffer": 69,
      "byteLength": 448
    }
  ],
  "buffers": [
    {
      "byteLength": 4320,
      "uri": "data:application/octet-stream;base64,"
    },
    {
      "byteLength": 4320,
      "uri": "data:application/octet-stream;base64,"
    },
    {
      "byteLength": 2880,
      "uri": "data:application/octet-stream;base64,"
    },
    {
      "byteLength": 1440,
      "uri": "data:application/octet-stream;base64,"
    },
    {
      "byteLength": 5760,
      "uri": "data:application/octet-stream;base64,"
    },
    {
      "byteLength": 2880,
      "uri": "data:application/octet-stream;base64,"
    },
    {
      "byteLength": 448,
      "uri": "data:application/octet-stream;base64,"
    },
    {
      "byteLength": 4320,
      "uri": "data:application/octet-stream;base64,"
    },
    {
      "byteLength": 4320,
      "uri": "data:application/octet-stream;base64,"
    },
    {
      "byteLength": 2880,
      "uri": "data:application/octet-stream;base64,"
    },
    {
      "byteLength": 1440,
      "uri": "data:application/octet-stream;base64,"
    },
    {
      "byteLength": 5760,
      "uri": "data:application/octet-stream;base64,"
    },
    {
      "byteLength": 2880,
      "uri": "data:application/octet-stream;base64,"
    },
    {
      "byteLength": 448,
      "uri": "data:application/octet-stream;base64,"
    },
    {
      "byteLength": 4320,
      "uri": "data:application/octet-stream;base64,"
    },
    {
      "byteLength": 4320,
      "uri": "data:application/octet-stream;base64,"
    },
    {
      "byteLength": 2880,
      "uri": "data:application/octet-stream;base64,"
    },
    {
      "byteLength": 1440,
      "uri": "data:application/octet-stream;base64,"
    },
    {
      "byteLength": 5760,
      "uri": "data:application/octet-stream;base64,"
    },
    {
      "byteLength": 2880,
      "uri": "data:application/octet-stream;base64,"
    },
    {
      "byteLength": 448,
      "uri": "data:application/octet-stream;base64,"
    },
    {
      "byteLength": 4320,
      "uri": "data:application/octet-stream;base64,"
    },
    {
      "byteLength": 4320,
      "uri": "data:application/octet-stream;base64,"
    },
    {
      "byteLength": 2880,
      "uri": "data:application/octet-stream;base64,"
    },
    {
      "byteLength": 1440,
      "uri": "data:application/octet-stream;base64,"
    },
    {
      "byteLength": 5760,
      "uri": "data:application/octet-stream;base64,"
    },
    {
      "byteLength": 2880,
      "uri": "data:application/octet-stream;base64,"
    },
    {
      "byteLength": 448,
      "uri": "data:application/octet-stream;base64,"
    },
    {
      "byteLength": 7200,
      "uri": "data:application/octet-stream;base64,"
    },
    {
      "byteLength": 7200,
      "uri": "data:application/octet-stream;base64,"
    },
    {
      "byteLength": 4800,
      "uri": "data:application/octet-stream;base64,"
    },
    {
      "byteLength": 2400,
      "uri": "data:application/octet-stream;base64,"
    },
    {
      "byteLength": 9600,
      "uri": "data:application/octet-stream;base64,"
    },
    {
      "byteLength": 4800,
      "uri": "data:application/octet-stream;base64,"
    },
    {
      "byteLength": 448,
      "uri": "data:application/octet-stream;base64,"
    },
    {
      "byteLength": 4320,
      "uri": "data:application/octet-stream;base64,"
    },
    {
      "byteLength": 4320,
      "uri": "data:application/octet-stream;base64,"
    },
    {
      "byteLength": 2880,
      "uri": "data:application/octet-stream;base64,"
    },
    {
      "byteLength": 1440,
      "uri": "data:application/octet-stream;base64,"
    },
    {
      "byteLength": 5760,
      "uri": "data:application/octet-stream;base64,"
    },
    {
      "byteLength": 2880,
      "uri": "data:application/octet-stream;base64,"
    },
    {
      "byteLength": 448,
      "uri": "data:application/octet-stream;base64,"
    },
    {
      "byteLength": 4320,
      "uri": "data:application/octet-stream;base64,"
    },
    {
      "byteLength": 4320,
      "uri": "data:application/octet-stream;base64,"
    },
    {
      "byteLength": 2880,
      "uri": "data:application/octet-stream;base64,"
    },
    {
      "byteLength": 1440,
      "uri": "data:application/octet-stream;base64,"
    },
    {
      "byteLength": 5760,
      "uri": "data:application/octet-stream;base64,"
    },
    {
      "byteLength": 2880,
      "uri": "data:application/octet-stream;base64,"
    },
    {
      "byteLength": 448,
      "uri": "data:application/octet-stream;base64,"
    },
    {
      "byteLength": 4320,
      "uri": "data:application/octet-stream;base64,"
    },
    {
      "byteLength": 4320,
      "uri": "data:application/octet-stream;base64,"
    },
    {
      "byteLength": 2880,
      "uri": "data:application/octet-stream;base64,"
    },
    {
      "byteLength": 1440,
      "uri": "data:application/octet-stream;base64,"
    },
    {
      "byteLength": 5760,
      "uri": "data:application/octet-stream;base64,"
    },
    {
      "byteLength": 2880,
      "uri": "data:application/octet-stream;base64,"
    },
    {
      "byteLength": 448,
      "uri": "data:application/octet-stream;base64,"
    },
    {
      "byteLength": 4320,
      "uri": "data:application/octet-stream;base64,"
    },
    {
      "byteLength": 4320,
      "uri": "data:application/octet-stream;base64,"
    },
    {
      "byteLength": 2880,
      "uri": "data:application/octet-stream;base64,"
    },
    {
      "byteLength": 1440,
      "uri": "data:application/octet-stream;base64,"
    },
    {
      "byteLength": 5760,
      "uri": "data:application/octet-stream;base64,"
    },
    {
      "byteLength": 2880,
      "uri": "data:application/octet-stream;base64,"
    },
    {
      "byteLength": 448,
      "uri": "data:application/octet-stream;base64,"
    },
    {
      "byteLength": 8640,
      "uri": "data:application/octet-stream;base64,"
    },
    {
      "byteLength": 8640,
      "uri": "data:application/octet-stream;base64,"
    },
    {
      "byteLength": 5760,
      "uri": "data:application/octet-stream;base64,"
    },
    {
      "byteLength": 2880,
      "uri": "data:application/octet-stream;base64,"
    },
    {
      "byteLength": 11520,
      "uri": "data:application/octet-stream;base64,"
    },
    {
      "byteLength": 5760,
      "uri": "data:application/octet-stream;base64,"
    },
    {
      "byteLength": 448,
      "uri": "data:application/octet-stream;base64,"
    }
  ],
  "materials": [
    {
      "doubleSided": true,
      "pbrMetallicRoughness": {
        "metallicFactor": 0.0,
        "roughnessFactor": 0.0
      }
    },
    {
      "doubleSided": true,
      "pbrMetallicRoughness": {
        "metallicFactor": 0.0,
        "roughnessFactor": 0.0
      }
    },
    {
      "doubleSided": true,
      "pbrMetallicRoughness": {
        "metallicFactor": 0.0,
        "roughnessFactor": 0.0
      }
    },
    {
      "doubleSided": true,
      "pbrMetallicRoughness": {
        "metallicFactor": 0.0,
        "roughnessFactor": 0.0
      }
    },
    {
      "doubleSided": true,
      "pbrMetallicRoughness": {
        "metallicFactor": 0.0,
        "roughnessFactor": 0.0
      }
    },
    {
      "doubleSided": true,
      "pbrMetallicRoughness": {
        "baseColorFactor": [
          0.2078431397676468,
          0.2078431397676468,
          0.2078431397676468,
          1.0
        ],
        "metallicFactor": 0.0,
        "roughnessFactor": 0.0
      }
    },
    {
      "doubleSided": true,
      "pbrMetallicRoughness": {
        "baseColorFactor": [
          0.2078431397676468,
          0.2078431397676468,
          0.2078431397676468,
          1.0
        ],
        "metallicFactor": 0.0,
        "roughnessFactor": 0.0
      }
    },
    {
      "doubleSided": true,
      "pbrMetallicRoughness": {
        "baseColorFactor": [
          0.2078431397676468,
          0.2078431397676468,
          0.2078431397676468,
          1.0
        ],
        "metallicFactor": 0.0,
        "roughnessFactor": 0.0
      }
    },
    {
      "doubleSided": true,
      "pbrMetallicRoughness": {
        "baseColorFactor": [
          0.2078431397676468,
          0.2078431397676468,
          0.2078431397676468,
          1.0
        ],
        "metallicFactor": 0.0,
        "roughnessFactor": 0.0
      }
    },
    {
      "doubleSided": true,
      "pbrMetallicRoughness": {
        "metallicFactor": 0.0,
        "roughnessFactor": 0.0
      }
    }
  ],
  "meshes": [
    {
      "primitives": [
        {
          "attributes": {
            "JOINTS_0": 5,
            "NORMAL": 1,
            "POSITION": 0,
            "TEXCOORD_0": 2,
            "WEIGHTS_0": 4
          },
          "indices": 3,
          "material": 0,
          "mode": 4
        }
      ]
    },
    {
      "primitives": [
        {
          "attributes": {
            "JOINTS_0": 12,
            "NORMAL": 8,
            "POSITION": 7,
            "TEXCOORD_0": 9,
            "WEIGHTS_0": 11
          },
          "indices": 10,
          "material": 1,
          "mode": 4
        }
      ]
    },
    {
      "primitives": [
        {
          "attributes": {
            "JOINTS_0": 19,
            "NORMAL": 15,
            "POSITION": 14,
            "TEXCOORD_0": 16,
            "WEIGHTS_0": 18
          },
          "indices": 17,
          "material": 2,
          "mode": 4
        }
      ]
    },
    {
      "primitives": [
        {
          "attributes": {
            "JOINTS_0": 26,
            "NORMAL": 22,
            "POSITION": 21,
            "TEXCOORD_0": 23,
            "WEIGHTS_0": 25
          },
          "indices": 24,
          "material": 3,
          "mode": 4
        }
      ]
    },
    {
      "primitives": [
        {
          "attributes": {
            "JOINTS_0": 33,
            "NORMAL": 29,
            "POSITION": 28,
            "TEXCOORD_0": 30,
            "WEIGHTS_0": 32
          },
          "indices": 31,
          "material": 4,
          "mode": 4
        }
      ]
    },
    {
      "primitives": [
        {
          "attributes": {
            "JOINTS_0": 40,
            "NORMAL": 36,
            "POSITION": 35,
            "TEXCOORD_0": 37,
            "WEIGHTS_0": 39
          },
          "indices": 38,
          "material": 5,
          "mode": 4
        }
      ]
    },
    {
      "primitives": [
        {
          "attributes": {
            "JOINTS_0": 47,
            "NORMAL": 43,
            "POSITION": 42,
            "TEXCOORD_0": 44,
            "WEIGHTS_0": 46
          },
          "indices": 45,
          "material": 6,
          "mode": 4
        }
      ]
    },
    {
      "primitives": [
        {
          "attributes": {
            "JOINTS_0": 54,
            "NORMAL": 50,
            "POSITION": 49,
            "TEXCOORD_0": 51,
            "WEIGHTS_0": 53
          },
          "indices": 52,
          "material": 7,
          "mode": 4
        }
      ]
    },
    {
      "primitives": [
        {
          "attributes": {
            "JOINTS_0": 61,
            "NORMAL": 57,
            "POSITION": 56,
            "TEXCOORD_0": 58,
            "WEIGHTS_0": 60
          },
          "indices": 59,
          "material": 8,
          "mode": 4
        }
      ]
    },
    {
      "primitives": [
        {
          "attributes": {
            "JOINTS_0": 68,
            "NORMAL": 64,
            "POSITION": 63,
            "TEXCOORD_0": 65,
            "WEIGHTS_0": 67
          },
          "indices": 66,
          "material": 9,
          "mode": 4
        }
      ]
    }
  ],
  "nodes": [
    {
      "children": [
        1
      ],
      "name": "1player",
      "rotation": [
        0.0,
        -0.0,
        -0.0,
        1.0
      ],
      "scale": [
        1.0,
        1.0,
        1.0
      ],
      "translation": [
        -0.0,
        0.0,
        0.0
      ]
    },
    {
      "children": [
        12,
        11,
        10,
        9,
        8,
        7,
        6,
        5,
        4,
        3,
        2
      ],
      "name": "Scene",
      "rotation": [
        0.0,
        -0.0,
        -0.0,
        1.0
      ],
      "scale": [
        1.0,
        1.0,
        1.0
      ],
      "translation": [
        -0.0,
        -0.4239543676376343,
        0.8531771898269653
      ]
    },
    {
      "name": "right leg",
      "rotation": [
        0.0,
        -0.0,
        -0.0,
        1.0
      ],
      "scale": [
        1.0,
        1.0,
        1.0
      ],
      "translation": [
        -0.0,
        0.0,
        0.0
      ]
    },
    {
      "name": "right hand",
      "rotation": [
        0.0,
        -0.0,
        -0.0,
        1.0
      ],
      "scale": [
        1.0,
        1.0,
        1.0
      ],
      "translation": [
        -0.0,
        0.0,
        0.0
      ]
    },
    {
      "name": "left leg",
      "rotation": [
        0.0,
        -0.0,
        -0.0,
        1.0
      ],
      "scale": [
        1.0,
        1.0,
        1.0
      ],
      "translation": [
        -0.0,
        0.0,
        0.0
      ]
    },
    {
      "name": "left hand",
      "rotation": [
        0.0,
        -0.0,
        -0.0,
        1.0
      ],
      "scale": [
        1.0,
        1.0,
        1.0
      ],
      "translation": [
        -0.0,
        0.0,
        0.0
      ]
    },
    {
      "name": "head",
      "rotation": [
        0.0,
        -0.0,
        -0.0,
        1.0
      ],
      "scale": [
        1.0,
        1.0,
        1.0
      ],
      "translation": [
        -0.0,
        0.0,
        0.0
      ]
    },
    {
      "name": "Cylinder 3",
      "rotation": [
        0.0,
        -0.0,
        -0.0,
        1.0
      ],
      "scale": [
        1.0,
        1.0,
        1.0
      ],
      "translation": [
        -0.0,
        0.0,
        0.0
      ]
    },
    {
      "name": "Cylinder 2",
      "rotation": [
        0.0,
        -0.0,
        -0.0,
        1.0
      ],
      "scale": [
        1.0,
        1.0,
        1.0
      ],
      "translation": [
        -0.0,
        0.0,
        0.0
      ]
    },
    {
      "name": "Cylinder 1",
      "rotation": [
        0.0,
        -0.0,
        -0.0,
        1.0
      ],
      "scale": [
        1.0,
        1.0,
        1.0
      ],
      "translation": [
        -0.0,
        0.0,
        0.0
      ]
    },
    {
      "name": "Cylinder",
      "rotation": [
        0.0,
        -0.0,
        -0.0,
        1.0
      ],
      "scale": [
        1.0,
        1.0,
        1.0
      ],
      "translation": [
        -0.0,
        0.0,
        0.0
      ]
    },
    {
      "name": "body",
      "rotation": [
        0.0,
        -0.0,
        -0.0,
        1.0
      ],
      "scale": [
        1.0,
        1.0,
        1.0
      ],
      "translation": [
        -0.0,
        0.0,
        0.0
      ]
    },
    {
      "children": [
        13
      ],
      "name": "player",
      "rotation": [
        0.0,
        -0.0,
        -0.0,
        1.0
      ],
      "scale": [
        1.0,
        1.0,
        1.0
      ],
      "translation": [
        -0.0,
        1.2058603715559002e-07,
        -1.0115491151809692
      ]
    },
    {
      "children": [
        50,
        49,
        48,
        47,
        46,
        45,
        44,
        43,
        16,
        15,
        14
      ],
      "name": "Scene",
      "rotation": [
        0.0,
        -0.0,
        -0.0,
        1.0
      ],
      "scale": [
        1.0,
        1.0,
        1.0
      ],
      "translation": [
        -0.0,
        1.3767476048087701e-09,
        0.0
      ]
    },
    {
      "name": "right leg",
      "rotation": [
        0.0,
        -0.0,
        -0.0,
        1.0
      ],
      "scale": [
        1.0,
        1.0,
        1.0
      ],
      "translation": [
        -0.0,
        1.3767476048087701e-09,
        0.0
      ]
    },
    {
      "name": "right hand",
      "rotation": [
        0.0,
        -0.0,
        -0.0,
        1.0
      ],
      "scale": [
        1.0,
        1.0,
        1.0
      ],
      "translation": [
        -0.0,
        1.3767476048087701e-09,
        0.0
      ]
    },
    {
      "children": [
        36,
        30,
        17
      ],
      "name": "player",
      "rotation": [
        0.0,
        -0.0,
        -0.0,
        1.0
      ],
      "scale": [
        1.0,
        1.0,
        1.0
      ],
      "translation": [
        -0.0,
        1.3767476048087701e-09,
        0.0
      ]
    },
    {
      "children": [
        18
      ],
      "name": "Scene",
      "rotation": [
        0.0,
        -0.0,
        -0.0,
        1.0
      ],
      "scale": [
        1.0,
        1.0,
        1.0
      ],
      "translation": [
        -0.0,
        1.3767476048087701e-09,
        0.0
      ]
    },
    {
      "children": [
        29,
        23,
        22,
        21,
        20,
        19
      ],
      "name": "Group",
      "rotation": [
        0.0,
        -0.7071068286895752,
        -0.0,
        -0.7071068286895752
      ],
      "scale": [
        1.0,
        1.0,
        1.0
      ],
      "translation": [
        -0.0,
        1.3767476048087701e-09,
        0.0
      ]
    },
    {
      "name": "right leg",
      "rotation": [
        0.0,
        -0.0,
        -0.0,
        1.0
      ],
      "scale": [
        1.0,
        1.0,
        1.0
      ],
      "translation": [
        -0.0,
        1.3767476048087701e-09,
        -1.7763568394002505e-15
      ]
    },
    {
      "name": "right hand",
      "rotation": [
        0.0,
        -0.0,
        -0.0,
        1.0
      ],
      "scale": [
        1.0,
        1.0,
        1.0
      ],
      "translation": [
        -0.0,
        1.3767476048087701e-09,
        -1.7763568394002505e-15
      ]
    },
    {
      "name": "left leg",
      "rotation": [
        0.0,
        -0.0,
        -0.0,
        1.0
      ],
      "scale": [
        1.0,
        1.0,
        1.0
      ],
      "translation": [
        -0.0,
        1.3767476048087701e-09,
        -1.7763568394002505e-15
      ]
    },
    {
      "name": "left hand",
      "rotation": [
        0.0,
        -0.0,
        -0.0,
        1.0
      ],
      "scale": [
        1.0,
        1.0,
        1.0
      ],
      "translation": [
        -0.0,
        1.3767476048087701e-09,
        -1.7763568394002505e-15
      ]
    },
    {
      "children": [
        28,
        27,
        26,
        25,
        24
      ],
      "name": "face ",
      "rotation": [
        0.0,
        -0.7071068286895752,
        -0.0,
        0.7071067094802856
      ],
      "scale": [
        1.0,
        1.0,
        1.0
      ],
      "translation": [
        -0.0,
        1.3767476048087701e-09,
        -1.7763568394002505e-15
      ]
    },
    {
      "name": "head",
      "rotation": [
        0.0,
        -0.0,
        -0.0,
        1.0
      ],
      "scale": [
        1.0,
        1.0,
        1.0
      ],
      "translation": [
        1.7763568394002505e-15,
        1.3767476048087701e-09,
        0.0
      ]
    },
    {
      "name": "Cylinder 3",
      "rotation": [
        0.0,
        -0.0,
        -0.0,
        1.0
      ],
      "scale": [
        1.0,
        1.0,
        1.0
      ],
      "translation": [
        1.7763568394002505e-15,
        1.3767476048087701e-09,
        0.0
      ]
    },
    {
      "name": "Cylinder 2",
      "rotation": [
        0.0,
        -0.0,
        -0.0,
        1.0
      ],
      "scale": [
        1.0,
        1.0,
        1.0
      ],
      "translation": [
        1.7763568394002505e-15,
        1.3767476048087701e-09,
        0.0
      ]
    },
    {
      "name": "Cylinder 1",
      "rotation": [
        0.0,
        -0.0,
        -0.0,
        1.0
      ],
      "scale": [
        1.0,
        1.0,
        1.0
      ],
      "translation": [
        1.7763568394002505e-15,
        1.3767476048087701e-09,
        0.0
      ]
    },
    {
      "name": "Cylinder",
      "rotation": [
        0.0,
        -0.0,
        -0.0,
        1.0
      ],
      "scale": [
        1.0,
        1.0,
        1.0
      ],
      "translation": [
        1.7763568394002505e-15,
        1.3767476048087701e-09,
        0.0
      ]
    },
    {
      "name": "body",
      "rotation": [
        0.0,
        -0.0,
        -0.0,
        1.0
      ],
      "scale": [
        1.0,
        1.0,
        1.0
      ],
      "translation": [
        -0.0,
        1.3767476048087701e-09,
        -1.7763568394002505e-15
      ]
    },
    {
      "children": [
        35,
        32,
        31
      ],
      "name": "Bone 1",
      "rotation": [
        0.0,
        -0.0,
        -0.0,
        1.0
      ],
      "scale": [
        1.0,
        1.0,
        1.0
      ],
      "translation": [
        -0.008939717896282673,
        2.3058860301971436,
        0.17039044201374054
      ]
    },
    {
      "name": "Bone 2",
      "rotation": [
        0.7577725648880005,
        0.5321780443191528,
        0.11409658938646317,
        0.35992956161499023
      ],
      "scale": [
        1.0,
        1.0,
        1.0
      ],
      "translation": [
        -0.637937068939209,
        -0.01595449447631836,
        -0.0036590099334716797
      ]
    },
    {
      "children": [
        34,
        33
      ],
      "name": "Bone 1",
      "rotation": [
        0.0,
        -0.0,
        -0.0,
        1.0
      ],
      "scale": [
        1.0,
        1.0,
        1.0
      ],
      "translation": [
        -0.005036914721131325,
        -0.5006802082061768,
        0.0006027668714523315
      ]
    },
    {
      "name": "Bone 1",
      "rotation": [
        0.0,
        -0.0,
        -0.0,
        1.0
      ],
      "scale": [
        1.0,
        1.0,
        1.0
      ],
      "translation": [
        0.26651710271835327,
        -0.25952744483947754,
        -0.022788435220718384
      ]
    },
    {
      "name": "Bone",
      "rotation": [
        0.2396479696035385,
        -0.7024476528167725,
        0.2755592167377472,
        0.6109037399291992
      ],
      "scale": [
        1.0,
        1.0,
        1.0
      ],
      "translation": [
        -0.2850165367126465,
        -0.26686549186706543,
        -0.039926618337631226
      ]
    },
    {
      "name": "Bone",
      "rotation": [
        0.26869159936904907,
        -0.6180193424224854,
        0.7383818626403809,
        0.025479882955551147
      ],
      "scale": [
        1.0,
        1.0,
        1.0
      ],
      "translation": [
        0.6571723222732544,
        -0.01903510093688965,
        -0.002254307270050049
      ]
    },
    {
      "children": [
        42,
        39,
        38,
        37
      ],
      "name": "body",
      "rotation": [
        0.0,
        -0.0,
        -0.0,
        1.0
      ],
      "scale": [
        1.0,
        1.0,
        1.0
      ],
      "translation": [
        -0.008939717896282673,
        2.3058860301971436,
        0.17039044201374054
      ]
    },
    {
      "name": "Bone",
      "rotation": [
        0.001992706209421158,
        -2.577219859745128e-08,
        -5.051800826549879e-07,
        0.9999980330467224
      ],
      "scale": [
        1.0,
        1.0,
        1.0
      ],
      "translation": [
        -0.018544290214776993,
        0.3809385299682617,
        -0.055265262722969055
      ]
    },
    {
      "name": "right arm",
      "rotation": [
        -0.8195902705192566,
        -0.34443196654319763,
        -0.31733009219169617,
        0.33006060123443604
      ],
      "scale": [
        1.0,
        1.0,
        1.0
      ],
      "translation": [
        -0.637937068939209,
        -0.01595449447631836,
        -0.0036590248346328735
      ]
    },
    {
      "children": [
        41,
        40
      ],
      "name": "body2",
      "rotation": [
        0.0,
        -0.0,
        -0.0,
        1.0
      ],
      "scale": [
        1.0,
        1.0,
        1.0
      ],
      "translation": [
        -0.005036914721131325,
        -0.5006802082061768,
        0.0006027668714523315
      ]
    },
    {
      "name": "left leg",
      "rotation": [
        -0.2652154266834259,
        -0.16319377720355988,
        0.08873596787452698,
        0.9461261034011841
      ],
      "scale": [
        1.0,
        1.0,
        1.0
      ],
      "translation": [
        0.16941425204277039,
        -0.33681583404541016,
        0.18786519765853882
      ]
    },
    {
      "name": "right leg",
      "rotation": [
        0.03301937133073807,
        -0.9701957702636719,
        0.0070665390230715275,
        0.23995821177959442
      ],
      "scale": [
        1.0,
        1.0,
        1.0
      ],
      "translation": [
        -0.18260066211223602,
        -0.3496962785720825,
        -0.22192859649658203
      ]
    },
    {
      "name": "left arm ",
      "rotation": [
        -0.024817943572998047,
        0.3839709162712097,
        -0.5618119239807129,
        0.7323371767997742
      ],
      "scale": [
        1.0,
        1.0,
        1.0
      ],
      "translation": [
        0.6571723222732544,
        -0.01903510093688965,
        -0.0022543221712112427
      ]
    },
    {
      "name": "left leg",
      "rotation": [
        0.0,
        -0.0,
        -0.0,
        1.0
      ],
      "scale": [
        1.0,
        1.0,
        1.0
      ],
      "translation": [
        -0.0,
        1.3767476048087701e-09,
        0.0
      ]
    },
    {
      "name": "left hand",
      "rotation": [
        0.0,
        -0.0,
        -0.0,
        1.0
      ],
      "scale": [
        1.0,
        1.0,
        1.0
      ],
      "translation": [
        -0.0,
        1.3767476048087701e-09,
        0.0
      ]
    },
    {
      "name": "head",
      "rotation": [
        0.0,
        -0.0,
        -0.0,
        1.0
      ],
      "scale": [
        1.0,
        1.0,
        1.0
      ],
      "translation": [
        -0.0,
        1.3767476048087701e-09,
        0.0
      ]
    },
    {
      "name": "Cylinder 3",
      "rotation": [
        0.0,
        -0.0,
        -0.0,
        1.0
      ],
      "scale": [
        1.0,
        1.0,
        1.0
      ],
      "translation": [
        -0.0,
        1.3767476048087701e-09,
        0.0
      ]
    },
    {
      "name": "Cylinder 2",
      "rotation": [
        0.0,
        -0.0,
        -0.0,
        1.0
      ],
      "scale": [
        1.0,
        1.0,
        1.0
      ],
      "translation": [
        -0.0,
        1.3767476048087701e-09,
        0.0
      ]
    },
    {
      "name": "Cylinder 1",
      "rotation": [
        0.0,
        -0.0,
        -0.0,
        1.0
      ],
      "scale": [
        1.0,
        1.0,
        1.0
      ],
      "translation": [
        -0.0,
        1.3767476048087701e-09,
        0.0
      ]
    },
    {
      "name": "Cylinder",
      "rotation": [
        0.0,
        -0.0,
        -0.0,
        1.0
      ],
      "scale": [
        1.0,
        1.0,
        1.0
      ],
      "translation": [
        -0.0,
        1.3767476048087701e-09,
        0.0
      ]
    },
    {
      "name": "body",
      "rotation": [
        0.0,
        -0.0,
        -0.0,
        1.0
      ],
      "scale": [
        1.0,
        1.0,
        1.0
      ],
      "translation": [
        -0.0,
        1.3767476048087701e-09,
        0.0
      ]
    },
    {
      "mesh": 0,
      "name": "right leg",
      "rotation": [
        0.0,
        -0.0,
        -0.0,
        1.0
      ],
      "scale": [
        1.0,
        1.0,
        1.0
      ],
      "skin": 0,
      "translation": [
        -0.0,
        0.0,
        0.0
      ]
    },
    {
      "mesh": 1,
      "name": "right hand",
      "rotation": [
        0.0,
        -0.0,
        -0.0,
        1.0
      ],
      "scale": [
        1.0,
        1.0,
        1.0
      ],
      "skin": 1,
      "translation": [
        -0.0,
        0.0,
        0.0
      ]
    },
    {
      "mesh": 2,
      "name": "left leg",
      "rotation": [
        0.0,
        -0.0,
        -0.0,
        1.0
      ],
      "scale": [
        1.0,
        1.0,
        1.0
      ],
      "skin": 2,
      "translation": [
        -0.0,
        0.0,
        0.0
      ]
    },
    {
      "mesh": 3,
      "name": "left hand",
      "rotation": [
        0.0,
        -0.0,
        -0.0,
        1.0
      ],
      "scale": [
        1.0,
        1.0,
        1.0
      ],
      "skin": 3,
      "translation": [
        -0.0,
        0.0,
        0.0
      ]
    },
    {
      "mesh": 4,
      "name": "head",
      "rotation": [
        0.0,
        -0.0,
        -0.0,
        1.0
      ],
      "scale": [
        1.0,
        1.0,
        1.0
      ],
      "skin": 4,
      "translation": [
        -0.0,
        0.0,
        0.0
      ]
    },
    {
      "mesh": 5,
      "name": "Cylinder 3",
      "rotation": [
        0.0,
        -0.0,
        -0.0,
        1.0
      ],
      "scale": [
        1.0,
        1.0,
        1.0
      ],
      "skin": 5,
      "translation": [
        -0.0,
        0.0,
        0.0
      ]
    },
    {
      "mesh": 6,
      "name": "Cylinder 2",
      "rotation": [
        0.0,
        -0.0,
        -0.0,
        1.0
      ],
      "scale": [
        1.0,
        1.0,
        1.0
      ],
      "skin": 6,
      "translation": [
        -0.0,
        0.0,
        0.0
      ]
    },
    {
      "mesh": 7,
      "name": "Cylinder 1",
      "rotation": [
        0.0,
        -0.0,
        -0.0,
        1.0
      ],
      "scale": [
        1.0,
        1.0,
        1.0
      ],
      "skin": 7,
      "translation": [
        -0.0,
        0.0,
        0.0
      ]
    },
    {
      "mesh": 8,
      "name": "Cylinder",
      "rotation": [
        0.0,
        -0.0,
        -0.0,
        1.0
      ],
      "scale": [
        1.0,
        1.0,
        1.0
      ],
      "skin": 8,
      "translation": [
        -0.0,
        0.0,
        0.0
      ]
    },
    {
      "mesh": 9,
      "name": "body",
      "rotation": [
        0.0,
        -0.0,
        -0.0,
        1.0
      ],
      "scale": [
        1.0,
        1.0,
        1.0
      ],
      "skin": 9,
      "translation": [
        -0.0,
        0.0,
        0.0
      ]
    }
  ],
  "scenes": [
    {
      "nodes": [
        0,
        51,
        52,
        53,
        54,
        55,
        56,
        57,
        58,
        59,
        60
      ]
    }
  ],
  "skins": [
    {
      "inverseBindMatrices": 6,
      "joints": [
        40,
        36,
        42,
        38,
        39,
        41,
        37
      ]
    },
    {
      "inverseBindMatrices": 13,
      "joints": [
        40,
        36,
        42,
        38,
        39,
        41,
        37
      ]
    },
    {
      "inverseBindMatrices": 20,
      "joints": [
        40,
        36,
        42,
        38,
        39,
        41,
        37
      ]
    },
    {
      "inverseBindMatrices": 27,
      "joints": [
        40,
        36,
        42,
        38,
        39,
        41,
        37
      ]
    },
    {
      "inverseBindMatrices": 34,
      "joints": [
        40,
        36,
        42,
        38,
        39,
        41,
        37
      ]
    },
    {
      "inverseBindMatrices": 41,
      "joints": [
        40,
        36,
        42,
        38,
        39,
        41,
        37
      ]
    },
    {
      "inverseBindMatrices": 48,
      "joints": [
        40,
        36,
        42,
        38,
        39,
        41,
        37
      ]
    },
    {
      "inverseBindMatrices": 55,
      "joints": [
        40,
        36,
        42,
        38,
        39,
        41,
        37
      ]
    },
    {
      "inverseBindMatrices": 62,
      "joints": [
        40,
        36,
        42,
        38,
        39,
        41,
        37
      ]
    },
    {
      "inverseBindMatrices": 69,
      "joints": [
        40,
        36,
        42,
        38,
        39,
        41,
        37
      ]
    }
  ]
}
